<svg xmlns="http://www.w3.org/2000/svg"  viewBox="0 0 50 50" width="50px" height="50px"><path d="M 24.5 2 C 23.363281 2 22.324219 2.261719 21.5 2.757813 C 20.679688 3.257813 20 4.074219 20 5.097656 C 20 5.132813 20.003906 5.164063 20.003906 5.199219 L 21.1875 16.855469 C 21.191406 16.882813 21.195313 16.910156 21.199219 16.9375 C 21.339844 17.6875 21.875 18.199219 22.464844 18.519531 C 23.050781 18.835938 23.746094 18.996094 24.492188 19 L 24.5 19 C 25.246094 18.996094 25.941406 18.839844 26.53125 18.519531 C 27.117188 18.203125 27.65625 17.691406 27.796875 16.941406 C 27.800781 16.914063 27.804688 16.886719 27.808594 16.859375 L 28.996094 5.199219 C 28.996094 5.164063 29 5.132813 29 5.097656 C 29 4.074219 28.324219 3.257813 27.5 2.757813 C 26.671875 2.261719 25.636719 2 24.5 2 Z M 24.5 4 C 25.3125 4 26.027344 4.207031 26.464844 4.472656 C 26.898438 4.734375 26.996094 4.964844 26.996094 5.09375 L 25.828125 16.574219 C 25.832031 16.535156 25.8125 16.636719 25.578125 16.761719 C 25.339844 16.890625 24.945313 17 24.496094 17 C 24.050781 17 23.65625 16.890625 23.417969 16.761719 C 23.183594 16.636719 23.160156 16.53125 23.171875 16.574219 L 22.003906 5.09375 C 22.003906 4.964844 22.101563 4.734375 22.535156 4.472656 C 22.972656 4.207031 23.683594 4 24.5 4 Z M 8.695313 11.003906 C 8.578125 11 8.457031 11 8.335938 11.011719 C 7.863281 11.050781 7.394531 11.214844 6.976563 11.445313 C 6.140625 11.910156 5.402344 12.671875 4.835938 13.652344 C 4.273438 14.628906 3.984375 15.652344 4 16.609375 C 4.015625 17.5625 4.378906 18.554688 5.261719 19.066406 C 5.289063 19.082031 5.320313 19.097656 5.351563 19.109375 L 15.910156 23.859375 C 15.9375 23.871094 15.964844 23.882813 15.988281 23.890625 C 16.707031 24.144531 17.414063 23.933594 17.980469 23.582031 C 18.527344 23.246094 18.988281 22.738281 19.355469 22.125 L 19.363281 22.128906 L 19.363281 22.125 L 19.355469 22.121094 C 19.367188 22.101563 19.386719 22.09375 19.398438 22.074219 C 19.398438 22.074219 19.402344 22.074219 19.402344 22.074219 C 19.476563 21.941406 19.519531 21.792969 19.53125 21.640625 C 19.761719 21.125 19.980469 20.601563 20 20.082031 C 20.019531 19.417969 19.847656 18.703125 19.273438 18.203125 C 19.25 18.1875 19.230469 18.167969 19.203125 18.152344 L 9.820313 11.363281 C 9.792969 11.34375 9.765625 11.324219 9.734375 11.308594 C 9.40625 11.117188 9.050781 11.023438 8.695313 11.003906 Z M 40.300781 11.003906 C 39.945313 11.023438 39.59375 11.117188 39.265625 11.308594 C 39.234375 11.324219 39.207031 11.34375 39.175781 11.363281 L 29.796875 18.152344 C 29.769531 18.167969 29.746094 18.1875 29.722656 18.207031 C 29.148438 18.703125 28.980469 19.421875 29 20.085938 C 29.019531 20.605469 29.238281 21.125 29.46875 21.636719 C 29.480469 21.769531 29.511719 21.898438 29.574219 22.019531 L 29.574219 22.023438 L 29.582031 22.015625 C 29.59375 22.035156 29.589844 22.054688 29.601563 22.074219 C 29.972656 22.71875 30.453125 23.234375 31.019531 23.582031 C 31.585938 23.933594 32.292969 24.144531 33.011719 23.890625 C 33.039063 23.882813 33.0625 23.871094 33.089844 23.859375 L 43.644531 19.109375 C 43.679688 19.097656 43.707031 19.082031 43.738281 19.066406 C 44.621094 18.554688 44.984375 17.5625 45 16.609375 C 45.015625 15.652344 44.726563 14.628906 44.164063 13.652344 C 43.601563 12.671875 42.859375 11.910156 42.023438 11.445313 C 41.605469 11.214844 41.136719 11.050781 40.660156 11.011719 C 40.542969 11 40.421875 11 40.300781 11.003906 Z M 8.460938 13.003906 C 8.589844 12.988281 8.675781 13.011719 8.726563 13.042969 L 17.964844 19.722656 C 17.925781 19.691406 18.007813 19.757813 18 20.023438 C 17.992188 20.289063 17.890625 20.6875 17.667969 21.074219 C 17.667969 21.074219 17.667969 21.074219 17.667969 21.078125 C 17.445313 21.457031 17.15625 21.742188 16.929688 21.882813 C 16.707031 22.019531 16.609375 21.988281 16.65625 22.003906 L 6.257813 17.328125 C 6.15625 17.265625 6.007813 17.074219 6 16.574219 C 5.992188 16.066406 6.164063 15.347656 6.570313 14.652344 C 6.972656 13.949219 7.503906 13.4375 7.945313 13.191406 C 8.167969 13.070313 8.335938 13.019531 8.460938 13.003906 Z M 40.535156 13.003906 C 40.664063 13.019531 40.832031 13.070313 41.050781 13.191406 C 41.492188 13.4375 42.027344 13.949219 42.429688 14.652344 C 42.832031 15.351563 43.007813 16.066406 43 16.574219 C 42.992188 17.074219 42.839844 17.265625 42.738281 17.328125 L 32.34375 22.003906 C 32.390625 21.988281 32.296875 22.019531 32.074219 21.882813 C 31.84375 21.742188 31.554688 21.457031 31.332031 21.074219 C 31.113281 20.6875 31.007813 20.289063 31 20.023438 C 30.992188 19.761719 31.070313 19.691406 31.035156 19.722656 L 40.269531 13.042969 C 40.320313 13.015625 40.40625 12.988281 40.535156 13.003906 Z M 17.78125 21.140625 L 18.535156 21.578125 L 19.292969 22.082031 Z M 31.234375 21.195313 L 29.683594 22.027344 L 30.460938 21.578125 Z M 16.523438 26 C 16.347656 26.011719 16.167969 26.042969 15.988281 26.109375 C 15.960938 26.117188 15.9375 26.128906 15.910156 26.140625 L 5.351563 30.890625 C 5.320313 30.902344 5.292969 30.917969 5.261719 30.933594 C 4.378906 31.445313 4.015625 32.4375 4 33.390625 C 3.984375 34.347656 4.273438 35.371094 4.835938 36.347656 C 5.398438 37.328125 6.140625 38.089844 6.976563 38.554688 C 7.8125 39.019531 8.851563 39.203125 9.734375 38.691406 C 9.765625 38.675781 9.792969 38.65625 9.820313 38.636719 L 19.203125 31.847656 C 19.230469 31.832031 19.253906 31.8125 19.277344 31.792969 C 19.851563 31.296875 20.019531 30.578125 20 29.914063 C 19.980469 29.394531 19.761719 28.875 19.53125 28.363281 C 19.519531 28.230469 19.488281 28.101563 19.425781 27.980469 L 19.425781 27.976563 L 19.417969 27.984375 C 19.40625 27.964844 19.410156 27.945313 19.398438 27.925781 C 19.027344 27.28125 18.546875 26.765625 17.980469 26.417969 C 17.699219 26.242188 17.378906 26.101563 17.042969 26.035156 C 16.875 26.003906 16.699219 25.988281 16.523438 26 Z M 32.472656 26 C 32.296875 25.988281 32.125 26.003906 31.957031 26.035156 C 31.621094 26.101563 31.300781 26.242188 31.019531 26.417969 C 30.472656 26.753906 30.011719 27.261719 29.644531 27.875 L 29.636719 27.871094 L 29.636719 27.875 L 29.644531 27.878906 C 29.632813 27.898438 29.613281 27.90625 29.601563 27.925781 C 29.601563 27.925781 29.597656 27.925781 29.597656 27.925781 C 29.523438 28.058594 29.480469 28.207031 29.46875 28.359375 C 29.238281 28.875 29.019531 29.398438 29 29.917969 C 28.980469 30.582031 29.152344 31.296875 29.726563 31.796875 C 29.75 31.8125 29.769531 31.832031 29.796875 31.847656 L 39.179688 38.636719 C 39.207031 38.65625 39.234375 38.675781 39.265625 38.691406 C 40.148438 39.203125 41.1875 39.019531 42.023438 38.554688 C 42.859375 38.089844 43.597656 37.328125 44.164063 36.347656 C 44.726563 35.371094 45.015625 34.347656 45 33.390625 C 44.984375 32.4375 44.621094 31.445313 43.738281 30.933594 C 43.710938 30.917969 43.679688 30.902344 43.648438 30.890625 L 33.089844 26.140625 C 33.0625 26.128906 33.035156 26.117188 33.011719 26.109375 C 32.832031 26.042969 32.652344 26.011719 32.472656 26 Z M 29.707031 27.917969 L 31.21875 28.859375 L 30.464844 28.421875 Z M 19.316406 27.972656 L 18.539063 28.421875 L 17.765625 28.804688 Z M 16.65625 27.996094 C 16.609375 28.011719 16.703125 27.980469 16.925781 28.117188 C 17.15625 28.257813 17.445313 28.542969 17.667969 28.925781 C 17.886719 29.3125 17.992188 29.710938 18 29.976563 C 18.007813 30.238281 17.929688 30.308594 17.964844 30.277344 L 8.730469 36.957031 C 8.625 37.015625 8.386719 37.050781 7.949219 36.808594 C 7.507813 36.5625 6.972656 36.050781 6.570313 35.347656 C 6.167969 34.648438 5.992188 33.933594 6 33.425781 C 6.007813 32.925781 6.160156 32.734375 6.261719 32.671875 Z M 32.34375 27.996094 L 42.738281 32.671875 C 42.84375 32.734375 42.992188 32.925781 43 33.425781 C 43.007813 33.933594 42.835938 34.652344 42.433594 35.347656 C 42.027344 36.050781 41.496094 36.5625 41.050781 36.808594 C 40.613281 37.050781 40.375 37.015625 40.269531 36.957031 L 31.035156 30.277344 C 31.074219 30.308594 30.992188 30.242188 31 29.976563 C 31.007813 29.710938 31.109375 29.3125 31.332031 28.925781 C 31.332031 28.925781 31.332031 28.921875 31.332031 28.921875 C 31.554688 28.542969 31.84375 28.257813 32.070313 28.117188 C 32.292969 27.980469 32.390625 28.011719 32.34375 27.996094 Z M 24.5 31 C 24.355469 31.003906 24.210938 31.035156 24.078125 31.097656 C 23.507813 31.152344 22.9375 31.226563 22.46875 31.480469 C 21.882813 31.796875 21.34375 32.308594 21.203125 33.058594 C 21.199219 33.085938 21.195313 33.113281 21.191406 33.140625 L 20.003906 44.800781 C 20.003906 44.835938 20 44.867188 20 44.902344 C 20 45.925781 20.675781 46.742188 21.5 47.238281 C 22.328125 47.738281 23.363281 48 24.5 48 C 25.636719 48 26.675781 47.738281 27.5 47.238281 C 28.320313 46.742188 29 45.925781 29 44.902344 C 29 44.867188 28.996094 44.835938 28.996094 44.800781 L 27.8125 33.144531 C 27.808594 33.117188 27.804688 33.089844 27.800781 33.0625 C 27.660156 32.3125 27.125 31.800781 26.535156 31.480469 C 25.949219 31.164063 25.253906 31.003906 24.507813 31 Z M 24.503906 33 C 24.949219 33 25.34375 33.109375 25.582031 33.238281 C 25.816406 33.363281 25.839844 33.46875 25.828125 33.425781 L 26.996094 44.90625 C 26.996094 45.035156 26.898438 45.265625 26.464844 45.527344 C 26.027344 45.792969 25.316406 46 24.5 46 C 23.6875 46 22.972656 45.792969 22.535156 45.527344 C 22.101563 45.265625 22.003906 45.035156 22.003906 44.90625 L 23.171875 33.425781 C 23.167969 33.464844 23.1875 33.363281 23.421875 33.238281 C 23.660156 33.109375 24.054688 33 24.503906 33 Z"/></svg>